<svg width="228" height="202" viewBox="0 0 228 202" fill="none" xmlns="http://www.w3.org/2000/svg">
<path d="M40.4009 143.813H46.1243L49.9211 135.434H64.7532L68.4004 143.813H74.1237L57.6832 107.06L40.4009 143.813ZM52.1095 130.44L57.4774 118.675L62.6396 130.44H52.1095Z" fill="black"/>
<path d="M112.653 109.099V130.028C112.653 131.899 112.709 134.199 113.738 136.014C114.786 137.79 117.124 139.605 120.191 139.605C123.258 139.605 125.596 137.79 126.644 136.014C127.691 134.199 127.729 131.899 127.729 130.028V109.099H133.04V131.431C133.04 134.181 132.461 137.529 129.805 140.428C127.99 142.41 124.904 144.486 120.172 144.486C115.44 144.486 112.373 142.41 110.54 140.428C107.884 137.51 107.304 134.181 107.304 131.431V109.099H112.653Z" fill="black"/>
<path d="M146.694 138.819H156.888V143.813H141.382V109.099H146.694V138.819Z" fill="black"/>
<path d="M167.193 130.028C167.193 131.899 167.249 134.199 168.278 136.014C169.326 137.79 171.664 139.605 174.731 139.605C177.798 139.605 180.136 137.79 181.184 136.014C182.231 134.199 182.269 131.899 182.269 130.028V109.099H187.58V131.431C187.58 134.181 187.001 137.529 184.345 140.428C182.53 142.41 179.444 144.486 174.712 144.486C169.98 144.486 166.913 142.41 165.08 140.428C162.424 137.51 161.844 134.181 161.844 131.431V109.099H167.156V130.028H167.193Z" fill="black"/>
<path d="M78.7061 114.093H92.977L88.7313 121.462H94.5107L101.618 109.099H78.7061V114.093Z" fill="black"/>
<path d="M101.188 128.962V123.949H78.7061V128.962H84.4295L75.9006 143.813H101.188V138.819H84.5417L90.2089 128.962H101.188Z" fill="black"/>
<path d="M110.259 61.9468H105.752H100.777H97.2602L105.752 47.1521H110.259V39.6707H105.752H88.5069V47.1521H97.1106L88.6004 61.9468H67.0537V69.4469H75.6387L62.8454 91.7418H100.777V84.2416H75.8071L84.2985 69.4469H100.777H105.752H110.259V61.9468Z" fill="black"/>
<path d="M127.224 91.7418H165.155L152.361 69.4469H160.946V61.9468H139.4L130.889 47.1521H139.493V39.6707H122.248H117.741V47.1521H122.248L130.74 61.9468H127.224H122.248H117.741V69.4469H122.248H127.224H143.702L152.193 84.2416H127.224V91.7418Z" fill="black"/>
<path d="M1.91761 196V178.545H12.8608V180.812H4.55114V186.131H12.2898V188.389H4.55114V193.733H12.9631V196H1.91761ZM25.8984 183.131C25.8075 182.324 25.4325 181.699 24.7734 181.256C24.1143 180.807 23.2848 180.582 22.2848 180.582C21.5689 180.582 20.9496 180.696 20.4268 180.923C19.9041 181.145 19.4979 181.452 19.2081 181.844C18.924 182.23 18.782 182.67 18.782 183.165C18.782 183.58 18.8786 183.937 19.0717 184.239C19.2706 184.54 19.5291 184.793 19.8473 184.997C20.1712 185.196 20.5178 185.364 20.8871 185.5C21.2564 185.631 21.6115 185.739 21.9524 185.824L23.657 186.267C24.2138 186.403 24.7848 186.588 25.37 186.821C25.9553 187.054 26.4979 187.361 26.9979 187.741C27.4979 188.122 27.9013 188.594 28.2081 189.156C28.5206 189.719 28.6768 190.392 28.6768 191.176C28.6768 192.165 28.4212 193.043 27.9098 193.81C27.4041 194.577 26.6683 195.182 25.7024 195.625C24.7422 196.068 23.5803 196.29 22.2166 196.29C20.9098 196.29 19.7791 196.082 18.8246 195.668C17.87 195.253 17.1229 194.665 16.5831 193.903C16.0433 193.136 15.745 192.227 15.6882 191.176H18.3303C18.3814 191.807 18.5859 192.332 18.9439 192.753C19.3075 193.168 19.7706 193.477 20.3331 193.682C20.9013 193.881 21.5234 193.98 22.1996 193.98C22.9439 193.98 23.6058 193.864 24.1854 193.631C24.7706 193.392 25.2308 193.062 25.5661 192.642C25.9013 192.216 26.0689 191.719 26.0689 191.151C26.0689 190.634 25.9212 190.21 25.6257 189.881C25.3359 189.551 24.9411 189.278 24.4411 189.062C23.9467 188.847 23.3871 188.656 22.7621 188.491L20.6996 187.929C19.3018 187.548 18.1939 186.989 17.3757 186.25C16.5632 185.511 16.157 184.534 16.157 183.318C16.157 182.312 16.4297 181.435 16.9751 180.685C17.5206 179.935 18.2592 179.352 19.1911 178.938C20.1229 178.517 21.174 178.307 22.3445 178.307C23.5263 178.307 24.5689 178.514 25.4723 178.929C26.3814 179.344 27.0973 179.915 27.62 180.642C28.1428 181.364 28.4155 182.193 28.4382 183.131H25.8984ZM30.9631 180.812V178.545H44.4716V180.812H39.0256V196H36.4006V180.812H30.9631ZM46.8686 196H44.0732L50.3544 178.545H53.397L59.6783 196H56.8828L51.9482 181.716H51.8118L46.8686 196ZM47.3374 189.165H56.4055V191.381H47.3374V189.165ZM62.1989 196V178.545H68.5909C69.8295 178.545 70.8551 178.75 71.6676 179.159C72.4801 179.562 73.0881 180.111 73.4915 180.804C73.8949 181.491 74.0966 182.267 74.0966 183.131C74.0966 183.858 73.9631 184.472 73.696 184.972C73.429 185.466 73.071 185.864 72.6222 186.165C72.179 186.46 71.6903 186.676 71.1562 186.812V186.983C71.7358 187.011 72.3011 187.199 72.8523 187.545C73.4091 187.886 73.8693 188.372 74.233 189.003C74.5966 189.634 74.7784 190.401 74.7784 191.304C74.7784 192.196 74.5682 192.997 74.1477 193.707C73.733 194.412 73.0909 194.972 72.2216 195.386C71.3523 195.795 70.2415 196 68.8892 196H62.1989ZM64.8324 193.741H68.6335C69.8949 193.741 70.7983 193.497 71.3438 193.009C71.8892 192.52 72.1619 191.909 72.1619 191.176C72.1619 190.625 72.0227 190.119 71.7443 189.659C71.4659 189.199 71.0682 188.832 70.5511 188.56C70.0398 188.287 69.4318 188.151 68.7273 188.151H64.8324V193.741ZM64.8324 186.097H68.3608C68.9517 186.097 69.483 185.983 69.9545 185.756C70.4318 185.528 70.8097 185.21 71.0881 184.801C71.3722 184.386 71.5142 183.898 71.5142 183.335C71.5142 182.614 71.2614 182.009 70.7557 181.52C70.25 181.031 69.4744 180.787 68.429 180.787H64.8324V186.097ZM77.902 196V178.545H80.5355V193.733H88.4446V196H77.902ZM94.0824 178.545V196H91.4489V178.545H94.0824ZM107.438 183.131C107.347 182.324 106.972 181.699 106.312 181.256C105.653 180.807 104.824 180.582 103.824 180.582C103.108 180.582 102.489 180.696 101.966 180.923C101.443 181.145 101.037 181.452 100.747 181.844C100.463 182.23 100.321 182.67 100.321 183.165C100.321 183.58 100.418 183.937 100.611 184.239C100.81 184.54 101.068 184.793 101.386 184.997C101.71 185.196 102.057 185.364 102.426 185.5C102.795 185.631 103.151 185.739 103.491 185.824L105.196 186.267C105.753 186.403 106.324 186.588 106.909 186.821C107.494 187.054 108.037 187.361 108.537 187.741C109.037 188.122 109.44 188.594 109.747 189.156C110.06 189.719 110.216 190.392 110.216 191.176C110.216 192.165 109.96 193.043 109.449 193.81C108.943 194.577 108.207 195.182 107.241 195.625C106.281 196.068 105.119 196.29 103.756 196.29C102.449 196.29 101.318 196.082 100.364 195.668C99.4091 195.253 98.6619 194.665 98.1222 193.903C97.5824 193.136 97.2841 192.227 97.2273 191.176H99.8693C99.9205 191.807 100.125 192.332 100.483 192.753C100.847 193.168 101.31 193.477 101.872 193.682C102.44 193.881 103.062 193.98 103.739 193.98C104.483 193.98 105.145 193.864 105.724 193.631C106.31 193.392 106.77 193.062 107.105 192.642C107.44 192.216 107.608 191.719 107.608 191.151C107.608 190.634 107.46 190.21 107.165 189.881C106.875 189.551 106.48 189.278 105.98 189.062C105.486 188.847 104.926 188.656 104.301 188.491L102.239 187.929C100.841 187.548 99.733 186.989 98.9148 186.25C98.1023 185.511 97.696 184.534 97.696 183.318C97.696 182.312 97.9688 181.435 98.5142 180.685C99.0597 179.935 99.7983 179.352 100.73 178.938C101.662 178.517 102.713 178.307 103.884 178.307C105.065 178.307 106.108 178.514 107.011 178.929C107.92 179.344 108.636 179.915 109.159 180.642C109.682 181.364 109.955 182.193 109.977 183.131H107.438ZM113.363 196V178.545H115.996V186.131H124.698V178.545H127.34V196H124.698V188.389H115.996V196H113.363ZM131.175 196V178.545H142.119V180.812H133.809V186.131H141.548V188.389H133.809V193.733H142.221V196H131.175ZM151.287 196H145.636V178.545H151.466C153.176 178.545 154.645 178.895 155.872 179.594C157.099 180.287 158.04 181.284 158.693 182.585C159.352 183.881 159.682 185.435 159.682 187.247C159.682 189.065 159.349 190.628 158.685 191.935C158.026 193.241 157.071 194.247 155.821 194.952C154.571 195.651 153.06 196 151.287 196ZM148.27 193.699H151.142C152.472 193.699 153.577 193.449 154.457 192.949C155.338 192.443 155.997 191.713 156.435 190.759C156.872 189.798 157.091 188.628 157.091 187.247C157.091 185.878 156.872 184.716 156.435 183.761C156.003 182.807 155.358 182.082 154.5 181.588C153.642 181.094 152.577 180.847 151.304 180.847H148.27V193.699ZM169.07 196V194.091L174.976 187.972C175.607 187.307 176.126 186.724 176.536 186.224C176.95 185.719 177.26 185.239 177.464 184.784C177.669 184.33 177.771 183.847 177.771 183.335C177.771 182.756 177.635 182.256 177.362 181.835C177.089 181.409 176.717 181.082 176.246 180.855C175.774 180.622 175.243 180.506 174.652 180.506C174.027 180.506 173.482 180.634 173.016 180.889C172.55 181.145 172.192 181.506 171.942 181.972C171.692 182.437 171.567 182.983 171.567 183.608H169.053C169.053 182.545 169.297 181.616 169.786 180.821C170.274 180.026 170.945 179.409 171.797 178.972C172.649 178.528 173.618 178.307 174.703 178.307C175.8 178.307 176.766 178.526 177.601 178.963C178.442 179.395 179.098 179.986 179.57 180.736C180.041 181.48 180.277 182.321 180.277 183.259C180.277 183.906 180.155 184.54 179.911 185.159C179.672 185.778 179.254 186.469 178.658 187.23C178.061 187.986 177.232 188.903 176.169 189.983L172.7 193.614V193.741H180.558V196H169.07ZM189.865 196.29C188.518 196.284 187.368 195.929 186.413 195.224C185.459 194.52 184.729 193.494 184.223 192.148C183.717 190.801 183.464 189.179 183.464 187.281C183.464 185.389 183.717 183.773 184.223 182.432C184.734 181.091 185.467 180.068 186.422 179.364C187.382 178.659 188.53 178.307 189.865 178.307C191.2 178.307 192.345 178.662 193.3 179.372C194.254 180.077 194.984 181.099 195.49 182.44C196.001 183.776 196.257 185.389 196.257 187.281C196.257 189.185 196.004 190.81 195.499 192.156C194.993 193.497 194.263 194.523 193.308 195.233C192.354 195.938 191.206 196.29 189.865 196.29ZM189.865 194.014C191.047 194.014 191.97 193.438 192.635 192.284C193.305 191.131 193.641 189.463 193.641 187.281C193.641 185.832 193.487 184.608 193.18 183.608C192.879 182.602 192.445 181.841 191.876 181.324C191.314 180.801 190.643 180.54 189.865 180.54C188.689 180.54 187.766 181.119 187.095 182.278C186.425 183.437 186.087 185.105 186.081 187.281C186.081 188.736 186.232 189.966 186.533 190.972C186.839 191.972 187.274 192.73 187.837 193.247C188.399 193.759 189.075 194.014 189.865 194.014ZM199.281 196V194.091L205.187 187.972C205.817 187.307 206.337 186.724 206.746 186.224C207.161 185.719 207.471 185.239 207.675 184.784C207.88 184.33 207.982 183.847 207.982 183.335C207.982 182.756 207.846 182.256 207.573 181.835C207.3 181.409 206.928 181.082 206.457 180.855C205.985 180.622 205.454 180.506 204.863 180.506C204.238 180.506 203.692 180.634 203.227 180.889C202.761 181.145 202.403 181.506 202.153 181.972C201.903 182.437 201.778 182.983 201.778 183.608H199.263C199.263 182.545 199.508 181.616 199.996 180.821C200.485 180.026 201.156 179.409 202.008 178.972C202.86 178.528 203.829 178.307 204.914 178.307C206.011 178.307 206.977 178.526 207.812 178.963C208.653 179.395 209.309 179.986 209.781 180.736C210.252 181.48 210.488 182.321 210.488 183.259C210.488 183.906 210.366 184.54 210.121 185.159C209.883 185.778 209.465 186.469 208.869 187.23C208.272 187.986 207.442 188.903 206.38 189.983L202.911 193.614V193.741H210.769V196H199.281ZM213.999 196V194.091L219.906 187.972C220.536 187.307 221.056 186.724 221.465 186.224C221.88 185.719 222.19 185.239 222.394 184.784C222.599 184.33 222.701 183.847 222.701 183.335C222.701 182.756 222.565 182.256 222.292 181.835C222.019 181.409 221.647 181.082 221.175 180.855C220.704 180.622 220.173 180.506 219.582 180.506C218.957 180.506 218.411 180.634 217.945 180.889C217.479 181.145 217.121 181.506 216.871 181.972C216.621 182.437 216.496 182.983 216.496 183.608H213.982C213.982 182.545 214.227 181.616 214.715 180.821C215.204 180.026 215.874 179.409 216.727 178.972C217.579 178.528 218.548 178.307 219.633 178.307C220.729 178.307 221.695 178.526 222.531 178.963C223.371 179.395 224.028 179.986 224.499 180.736C224.971 181.48 225.207 182.321 225.207 183.259C225.207 183.906 225.085 184.54 224.84 185.159C224.602 185.778 224.184 186.469 223.587 187.23C222.991 187.986 222.161 188.903 221.099 189.983L217.63 193.614V193.741H225.488V196H213.999Z" fill="black" fill-opacity="0.6"/>
</svg>
