<svg width="259" height="259" viewBox="0 0 259 259" fill="none" xmlns="http://www.w3.org/2000/svg">
<path d="M35.1329 184.394H42.4712L47.3394 173.65H66.3568L71.0332 184.394H78.3715L57.2918 137.27L35.1329 184.394ZM50.1453 167.247L57.028 152.163L63.6469 167.247H50.1453Z" fill="white"/>
<path d="M127.773 139.884V166.719C127.773 169.117 127.845 172.067 129.164 174.393C130.507 176.672 133.505 178.998 137.438 178.998C141.371 178.998 144.368 176.672 145.711 174.393C147.054 172.067 147.102 169.117 147.102 166.719V139.884H153.913V168.518C153.913 172.043 153.17 176.336 149.764 180.053C147.438 182.595 143.481 185.257 137.414 185.257C131.347 185.257 127.414 182.595 125.063 180.053C121.658 176.312 120.915 172.043 120.915 168.518V139.884H127.773Z" fill="white"/>
<path d="M171.42 177.991H184.49V184.394H164.609V139.884H171.42V177.991Z" fill="white"/>
<path d="M197.703 166.719C197.703 169.117 197.775 172.067 199.094 174.393C200.437 176.672 203.435 178.998 207.368 178.998C211.301 178.998 214.299 176.672 215.641 174.393C216.984 172.067 217.032 169.117 217.032 166.719V139.884H223.843V168.518C223.843 172.043 223.1 176.336 219.694 180.053C217.368 182.595 213.411 185.257 207.344 185.257C201.277 185.257 197.344 182.595 194.993 180.053C191.588 176.312 190.845 172.043 190.845 168.518V139.884H197.655V166.719H197.703Z" fill="white"/>
<path d="M84.2469 146.287H102.545L97.101 155.736H104.511L113.624 139.884H84.2469V146.287Z" fill="white"/>
<path d="M113.073 165.352V158.925H84.2469V165.352H91.5853L80.6497 184.394H113.073V177.991H91.7292L98.9956 165.352H113.073Z" fill="white"/>
<path d="M124.704 79.4267H118.924H112.545H108.037L118.924 60.4573H124.704V50.8647H118.924H96.8132V60.4573H107.845L96.9331 79.4267H69.3065V89.0432H80.314L63.9106 117.629H112.545V108.013H80.5298L91.4174 89.0432H112.545H118.924H124.704V79.4267Z" fill="white"/>
<path d="M146.455 117.629H195.089L178.686 89.0432H189.693V79.4267H162.067L151.155 60.4573H162.187V50.8647H140.076H134.296V60.4573H140.076L150.963 79.4267H146.455H140.076H134.296V89.0432H140.076H146.455H167.583L178.47 108.013H146.455V117.629Z" fill="white"/>
</svg>
